# xmcd CD database file
#
# Track frame offsets:
#	150
#	17552
#	34099
#	50827
#	68890
#	86237
#	107391
#	121811
#	144009
#	159389
#	178230
#	193297
#	211944
#	234504
#	251345
#	267882
#	286065
#
# Disc length: 4172 seconds
#
# Revision: 0
# Processed by: cddbd v1.5.1PL0 Copyright (c) Steve Scherf et al.
# Submitted via: Feurio! 1.67 - http://www.feurio.com
#
DISCID=e9104a11
DTITLE=finley quaye - maverick a stike - sunday shining
DYEAR=1900
DGENRE=Ballad
TTITLE0=ultra stimulaion
TTITLE1=it´s great when we are together
TTITLE2=sunday shining
TTITLE3=every after all
TTITLE4=ride on and turn the people on
TTITLE5=the way of the explosive
TTITLE6=your love got´s sweater
TTITLE7=supreme i preme
TTITLE8=sweat and loving man
TTITLE9=red rolled and green
TTITLE10=talking
TTITLE11=i need a lover
TTITLE12=maverick a strike
TTITLE13=sunday shining
TTITLE14=sunday need
TTITLE15=lovers need
TTITLE16=singing from the same hymne sheed
EXTD=
EXTT0=
EXTT1=
EXTT2=
EXTT3=
EXTT4=
EXTT5=
EXTT6=
EXTT7=
EXTT8=
EXTT9=
EXTT10=
EXTT11=
EXTT12=
EXTT13=
EXTT14=
EXTT15=
EXTT16=
PLAYORDER=
